<svg id="SvgjsSvg1112" width="796.9874572753906" height="363" xmlns="http://www.w3.org/2000/svg" version="1.1" xmlns:xlink="http://www.w3.org/1999/xlink" xmlns:svgjs="http://svgjs.com/svgjs"><defs id="SvgjsDefs1113"><marker id="SvgjsMarker1150" markerWidth="16" markerHeight="12" refX="16" refY="6" viewBox="0 0 16 12" orient="auto" markerUnits="userSpaceOnUse" stroke-dasharray="0,0"><path id="SvgjsPath1151" d="M0,2 L14,6 L0,11 L0,2" fill="#323232" stroke="#323232" stroke-width="2"></path></marker><marker id="SvgjsMarker1158" markerWidth="16" markerHeight="12" refX="16" refY="6" viewBox="0 0 16 12" orient="auto" markerUnits="userSpaceOnUse" stroke-dasharray="0,0"><path id="SvgjsPath1159" d="M0,2 L14,6 L0,11 L0,2" fill="#323232" stroke="#323232" stroke-width="2"></path></marker><marker id="SvgjsMarker1166" markerWidth="16" markerHeight="12" refX="16" refY="6" viewBox="0 0 16 12" orient="auto" markerUnits="userSpaceOnUse" stroke-dasharray="0,0"><path id="SvgjsPath1167" d="M0,2 L14,6 L0,11 L0,2" fill="#323232" stroke="#323232" stroke-width="2"></path></marker><marker id="SvgjsMarker1188" markerWidth="16" markerHeight="12" refX="16" refY="6" viewBox="0 0 16 12" orient="auto" markerUnits="userSpaceOnUse" stroke-dasharray="0,0"><path id="SvgjsPath1189" d="M0,2 L14,6 L0,11 L0,2" fill="#323232" stroke="#323232" stroke-width="2"></path></marker><marker id="SvgjsMarker1198" markerWidth="16" markerHeight="12" refX="16" refY="6" viewBox="0 0 16 12" orient="auto" markerUnits="userSpaceOnUse" stroke-dasharray="0,0"><path id="SvgjsPath1199" d="M0,2 L14,6 L0,11 L0,2" fill="#323232" stroke="#323232" stroke-width="2"></path></marker><marker id="SvgjsMarker1208" markerWidth="16" markerHeight="12" refX="16" refY="6" viewBox="0 0 16 12" orient="auto" markerUnits="userSpaceOnUse" stroke-dasharray="0,0"><path id="SvgjsPath1209" d="M0,2 L14,6 L0,11 L0,2" fill="#323232" stroke="#323232" stroke-width="2"></path></marker><marker id="SvgjsMarker1212" markerWidth="16" markerHeight="12" refX="16" refY="6" viewBox="0 0 16 12" orient="auto" markerUnits="userSpaceOnUse" stroke-dasharray="0,0"><path id="SvgjsPath1213" d="M0,2 L14,6 L0,11 L0,2" fill="#323232" stroke="#323232" stroke-width="2"></path></marker></defs><g id="SvgjsG1114" transform="translate(217.88748168945312,25.001206137050985)"><path id="SvgjsPath1115" d="M 0 4Q 0 0 4 0L 424.74285888671864 0Q 428.74285888671864 0 428.74285888671864 4L 428.74285888671864 308.85714285714266Q 428.74285888671864 312.85714285714266 424.74285888671864 312.85714285714266L 4 312.85714285714266Q 0 312.85714285714266 0 308.85714285714266Z" stroke="rgba(50,50,50,1)" stroke-width="2" fill-opacity="1" fill="#ffffff"></path><g id="SvgjsG1116"><text id="SvgjsText1117" font-family="微软雅黑" text-anchor="start" font-size="20px" width="419px" fill="#323232" font-weight="700" align="middle" lineHeight="125%" anchor="start" family="微软雅黑" size="20px" weight="700" font-style="" opacity="1" y="8.34693877551019" transform="rotate(0)"><tspan id="SvgjsTspan1118" dy="25" x="5"><tspan id="SvgjsTspan1119" style="text-decoration:;">本地环境</tspan></tspan></text></g></g><g id="SvgjsG1120" transform="translate(226.49224054245616,64.92498779296875)"><path id="SvgjsPath1121" d="M 14.7 0L 85.3 0L 100 35L 85.3 70L 14.7 70L 0 35L 14.7 0Z" stroke="rgba(50,50,50,1)" stroke-width="2" fill-opacity="1" fill="#00ffff"></path><g id="SvgjsG1122"><text id="SvgjsText1123" font-family="微软雅黑" text-anchor="middle" font-size="13px" width="80px" fill="#323232" font-weight="400" align="middle" lineHeight="125%" anchor="middle" family="微软雅黑" size="13px" weight="400" font-style="" opacity="1" y="17.375" transform="rotate(0)"><tspan id="SvgjsTspan1124" dy="16" x="50"><tspan id="SvgjsTspan1125" style="text-decoration:;">FlinkKafkaPr</tspan></tspan><tspan id="SvgjsTspan1126" dy="16" x="50"><tspan id="SvgjsTspan1127" style="text-decoration:;">oducer</tspan></tspan></text></g></g><g id="SvgjsG1128" transform="translate(661.4874877929688,132.6188684580278)"><path id="SvgjsPath1129" d="M 0 4Q 0 0 4 0L 96 0Q 100 0 100 4L 100 66Q 100 70 96 70L 4 70Q 0 70 0 66Z" stroke="rgba(50,50,50,1)" stroke-width="2" fill-opacity="1" fill="#00ff00"></path><g id="SvgjsG1130"><text id="SvgjsText1131" font-family="微软雅黑" text-anchor="middle" font-size="13px" width="80px" fill="#323232" font-weight="400" align="middle" lineHeight="125%" anchor="middle" family="微软雅黑" size="13px" weight="400" font-style="" opacity="1" y="25.375" transform="rotate(0)"><tspan id="SvgjsTspan1132" dy="16" x="50"><tspan id="SvgjsTspan1133" style="text-decoration:;">S3 bucket</tspan></tspan></text></g></g><g id="SvgjsG1134" transform="translate(237.61128816150605,237.92498779296875)"><path id="SvgjsPath1135" d="M 14.7 0L 85.3 0L 100 35L 85.3 70L 14.7 70L 0 35L 14.7 0Z" stroke="rgba(50,50,50,1)" stroke-width="2" fill-opacity="1" fill="#00ffff"></path><g id="SvgjsG1136"><text id="SvgjsText1137" font-family="微软雅黑" text-anchor="middle" font-size="13px" width="80px" fill="#323232" font-weight="400" align="middle" lineHeight="125%" anchor="middle" family="微软雅黑" size="13px" weight="400" font-style="" opacity="1" y="17.375" transform="rotate(0)"><tspan id="SvgjsTspan1138" dy="16" x="50"><tspan id="SvgjsTspan1139" style="text-decoration:;">FlinkKafka </tspan></tspan><tspan id="SvgjsTspan1140" dy="16" x="50"><tspan id="SvgjsTspan1141" style="text-decoration:;">Consumer</tspan></tspan></text></g></g><g id="SvgjsG1142" transform="translate(53.99224054245725,141.92977756562232)"><path id="SvgjsPath1143" d="M 0 4Q 0 0 4 0L 119 0Q 123 0 123 4L 123 75Q 123 79 119 79L 4 79Q 0 79 0 75Z" stroke="rgba(50,50,50,1)" stroke-width="2" fill-opacity="1" fill="#f57c00"></path><g id="SvgjsG1144"><text id="SvgjsText1145" font-family="微软雅黑" text-anchor="middle" font-size="13px" width="103px" fill="#323232" font-weight="400" align="middle" lineHeight="125%" anchor="middle" family="微软雅黑" size="13px" weight="400" font-style="" opacity="1" y="29.875" transform="rotate(0)"><tspan id="SvgjsTspan1146" dy="16" x="61.5"><tspan id="SvgjsTspan1147" style="text-decoration:;">kafka服务环境</tspan></tspan></text></g></g><g id="SvgjsG1148"><path id="SvgjsPath1149" d="M226.49224054245616 99.92498779296886L114.49224054245724 99.92498779296886L114.49224054245724 141.92977756562232" stroke="#323232" stroke-width="2" fill="none" marker-end="url(#SvgjsMarker1150)"></path><rect id="SvgjsRect1152" width="138" height="16" x="44.49224054245724" y="115.02762216792826" fill="#ffffff"></rect><text id="SvgjsText1153" font-family="微软雅黑" text-anchor="middle" font-size="13px" width="138px" fill="#323232" font-weight="400" align="top" lineHeight="16px" anchor="middle" family="微软雅黑" size="13px" weight="400" font-style="" opacity="1" y="113.40262216792826" transform="rotate(0)"><tspan id="SvgjsTspan1154" dy="16" x="113.49224054245724"><tspan id="SvgjsTspan1155" style="text-decoration:;">producer.send(record)</tspan></tspan></text></g><g id="SvgjsG1156"><path id="SvgjsPath1157" d="M114.49224054245735 220.92977756562232L114.49224054245735 272.92498779296875L237.61128816150605 272.92498779296875" stroke="#323232" stroke-width="2" fill="none" marker-end="url(#SvgjsMarker1158)"></path><rect id="SvgjsRect1160" width="197" height="16" x="14.992240542457353" y="231.12810114519357" fill="#ffffff"></rect><text id="SvgjsText1161" font-family="微软雅黑" text-anchor="middle" font-size="13px" width="197px" fill="#323232" font-weight="400" align="top" lineHeight="16px" anchor="middle" family="微软雅黑" size="13px" weight="400" font-style="" opacity="1" y="229.50310114519357" transform="rotate(0)"><tspan id="SvgjsTspan1162" dy="16" x="113.49224054245735"><tspan id="SvgjsTspan1163" style="text-decoration:;">env.addSource(kafkaConsumer)</tspan></tspan></text></g><g id="SvgjsG1164"><path id="SvgjsPath1165" d="M337.6112881615061 272.92498779296886L348.64462607247367 272.92498779296886L348.64462607247367 272.92498779296886L359.67796398344314 272.92498779296886" stroke="#323232" stroke-width="2" fill="none" marker-end="url(#SvgjsMarker1166)"></path></g><g id="SvgjsG1168" transform="translate(649.9874877929688,213.75831985473712)"><path id="SvgjsPath1169" d="M 0 0L 123 0L 123 48L 0 48Z" stroke="none" fill="none"></path><g id="SvgjsG1170"><text id="SvgjsText1171" font-family="微软雅黑" text-anchor="middle" font-size="13px" width="123px" fill="#323232" font-weight="400" align="middle" lineHeight="125%" anchor="middle" family="微软雅黑" size="13px" weight="400" font-style="" opacity="1" y="-1.625" transform="rotate(0)"><tspan id="SvgjsTspan1172" dy="16" x="61.5"><tspan id="SvgjsTspan1173" style="text-decoration:;">key="upload/yyyy-</tspan></tspan><tspan id="SvgjsTspan1174" dy="16" x="61.5"><tspan id="SvgjsTspan1175" style="text-decoration:;">MM-dd-HH-mm-</tspan></tspan><tspan id="SvgjsTspan1176" dy="16" x="61.5"><tspan id="SvgjsTspan1177" style="text-decoration:;">ss/nanoTime"</tspan></tspan></text></g></g><g id="SvgjsG1178" transform="translate(359.67796398344314,241.13045144689545)"><path id="SvgjsPath1179" d="M 0 4Q 0 0 4 0L 119 0Q 123 0 123 4L 123 59.5890726921466Q 123 63.5890726921466 119 63.5890726921466L 4 63.5890726921466Q 0 63.5890726921466 0 59.5890726921466Z" stroke="rgba(50,50,50,1)" stroke-width="2" fill-opacity="1" fill="#ffff00"></path><g id="SvgjsG1180"><text id="SvgjsText1181" font-family="微软雅黑" text-anchor="middle" font-size="13px" width="103px" fill="#323232" font-weight="400" align="middle" lineHeight="125%" anchor="middle" family="微软雅黑" size="13px" weight="400" font-style="" opacity="1" y="14.1695363460733" transform="rotate(0)"><tspan id="SvgjsTspan1182" dy="16" x="61.5"><tspan id="SvgjsTspan1183" style="text-decoration:;">Flink </tspan></tspan><tspan id="SvgjsTspan1184" dy="16" x="61.5"><tspan id="SvgjsTspan1185" style="text-decoration:;">Transformations</tspan></tspan></text></g></g><g id="SvgjsG1186"><path id="SvgjsPath1187" d="M482.67796398344314 272.92498779296875L499.13034057617256 272.92498779296875L499.13034057617256 272.92498779296875L515.2017691476008 272.92498779296875" stroke="#323232" stroke-width="2" fill="none" marker-end="url(#SvgjsMarker1188)"></path></g><g id="SvgjsG1190" transform="translate(515.2017691476008,237.92498779296875)"><path id="SvgjsPath1191" d="M 0 4Q 0 0 4 0L 96 0Q 100 0 100 4L 100 66Q 100 70 96 70L 4 70Q 0 70 0 66Z" stroke="rgba(50,50,50,1)" stroke-width="2" fill-opacity="1" fill="#ff0000"></path><g id="SvgjsG1192"><text id="SvgjsText1193" font-family="微软雅黑" text-anchor="middle" font-size="13px" width="80px" fill="#323232" font-weight="400" align="middle" lineHeight="125%" anchor="middle" family="微软雅黑" size="13px" weight="400" font-style="" opacity="1" y="25.375" transform="rotate(0)"><tspan id="SvgjsTspan1194" dy="16" x="50"><tspan id="SvgjsTspan1195" style="text-decoration:;">S3Client</tspan></tspan></text></g></g><g id="SvgjsG1196"><path id="SvgjsPath1197" d="M615.2017691476008 272.92498779296875L712.773202078683 272.92498779296875L712.773202078683 202.6188684580278" stroke="#323232" stroke-width="2" fill="none" marker-end="url(#SvgjsMarker1198)"></path></g><g id="SvgjsG1200" transform="translate(494.4874834333151,64.92498779296875)"><path id="SvgjsPath1201" d="M 0 4Q 0 0 4 0L 96 0Q 100 0 100 4L 100 66Q 100 70 96 70L 4 70Q 0 70 0 66Z" stroke="rgba(50,50,50,1)" stroke-width="2" fill-opacity="1" fill="#ff0000"></path><g id="SvgjsG1202"><text id="SvgjsText1203" font-family="微软雅黑" text-anchor="middle" font-size="13px" width="80px" fill="#323232" font-weight="400" align="middle" lineHeight="125%" anchor="middle" family="微软雅黑" size="13px" weight="400" font-style="" opacity="1" y="25.375" transform="rotate(0)"><tspan id="SvgjsTspan1204" dy="16" x="50"><tspan id="SvgjsTspan1205" style="text-decoration:;">S3Client</tspan></tspan></text></g></g><g id="SvgjsG1206"><path id="SvgjsPath1207" d="M712.773202078683 132.6188684580278L712.773202078683 99.92498779296875L594.4874834333151 99.92498779296875" stroke="#323232" stroke-width="2" fill="none" marker-end="url(#SvgjsMarker1208)"></path></g><g id="SvgjsG1210"><path id="SvgjsPath1211" d="M494.4874834333151 99.92498779296875L410.48986198788566 99.92498779296875L410.48986198788566 99.92498779296875L326.49224054245616 99.92498779296875" stroke="#323232" stroke-width="2" fill="none" marker-end="url(#SvgjsMarker1212)"></path><rect id="SvgjsRect1214" width="126" height="16" x="347.34463065011164" y="77.71548749168272" fill="#ffffff"></rect><text id="SvgjsText1215" font-family="微软雅黑" text-anchor="middle" font-size="13px" width="126px" fill="#323232" font-weight="400" align="top" lineHeight="16px" anchor="middle" family="微软雅黑" size="13px" weight="400" font-style="" opacity="1" y="76.09048749168272" transform="rotate(0)"><tspan id="SvgjsTspan1216" dy="16" x="410.34463065011164"><tspan id="SvgjsTspan1217" style="text-decoration:;">s3Content.split("\n")</tspan></tspan></text></g></svg>